<?xml version="1.0" standalone="no"?>
<!DOCTYPE svg PUBLIC "-//W3C//DTD SVG 20010904//EN"
 "http://www.w3.org/TR/2001/REC-SVG-20010904/DTD/svg10.dtd">
<svg version="1.0" xmlns="http://www.w3.org/2000/svg"
 width="431.000000pt" height="431.000000pt" viewBox="0 0 431.000000 431.000000"
 preserveAspectRatio="xMidYMid meet">
<metadata>
Created by potrace 1.11, written by Peter Selinger 2001-2013
</metadata>
<g transform="translate(0.000000,431.000000) scale(0.100000,-0.100000)"
fill="#000000" stroke="none">
<path d="M1901 3586 l-51 -52 0 -232 c0 -179 -3 -232 -12 -232 -7 0 -119 29
-248 64 l-235 64 -52 -51 -53 -51 0 -201 0 -200 300 -80 300 -79 0 -801 0
-802 43 -10 c34 -9 242 -64 332 -89 16 -4 34 8 73 47 l52 52 0 734 c0 695 1
734 18 729 9 -3 53 -15 97 -26 44 -12 146 -39 226 -61 81 -21 149 -39 151 -39
3 0 28 23 56 50 l52 51 0 199 0 199 -52 15 c-29 8 -141 38 -248 66 -107 28
-219 58 -247 66 l-53 15 0 299 0 299 -52 14 c-29 9 -98 27 -153 42 -55 15
-121 33 -147 40 l-46 12 -51 -51z"/>
</g>
</svg>
